<?xml version="1.0" encoding="utf-8"?>
<svg id="master-artboard" viewBox="0 0 353.0743103027344 74.97157287597656" version="1.1" xmlns="http://www.w3.org/2000/svg" x="0px" y="0px" style="enable-background:new 0 0 1400 980;" width="353.0743103027344px" height="74.97157287597656px"><rect id="ee-background" x="0" y="0" width="353.0743103027344" height="74.97157287597656" style="fill: white; fill-opacity: 0; pointer-events: none;"/><g transform="matrix(1.678804874420166, 0, 0, 1.678804874420166, 38.39171600341797, -27.713631629943848)"><defs>
    <style id="ee-google-fonts">@import url(https://fonts.googleapis.com/css?family=Aldrich%3Aital%2Cwght%400%2C400:400);</style>
  </defs><g style="" transform="matrix(0.928231, 0, 0, 1.010118, 14.584115, -0.217131)">
    <path d="M 78.27799987792969 23.79599952697754 C 78.27799987792969 23.64266586303711 78.30799865722656 23.499332427978516 78.36799621582031 23.365999221801758 C 78.42133331298828 23.232666015625 78.49800109863281 23.115999221801758 78.5979995727539 23.01599884033203 C 78.70466613769531 22.916000366210938 78.82466888427734 22.83599853515625 78.95800018310547 22.775999069213867 C 79.0913314819336 22.715999603271484 79.23466491699219 22.685998916625977 79.38800048828125 22.685998916625977 L 83.60800170898438 22.685998916625977 C 83.7613296508789 22.685998916625977 83.9046630859375 22.715999603271484 84.03800201416016 22.775999069213867 C 84.1780014038086 22.83599853515625 84.2979965209961 22.916000366210938 84.39800262451172 23.01599884033203 C 84.49800109863281 23.115999221801758 84.5780029296875 23.232666015625 84.63800048828125 23.365999221801758 C 84.69132995605469 23.499332427978516 84.71800231933594 23.64266586303711 84.71800231933594 23.79599952697754 L 84.71800231933594 24.805999755859375 L 83.60800170898438 24.805999755859375 L 83.60800170898438 23.79599952697754 L 79.38800048828125 23.79599952697754 L 79.38800048828125 29.355998992919922 L 83.60800170898438 29.355998992919922 L 83.60800170898438 28.355998992919922 L 84.71800231933594 28.355998992919922 L 84.71800231933594 29.355998992919922 C 84.71800231933594 29.50933265686035 84.69132995605469 29.652666091918945 84.63800048828125 29.785999298095703 C 84.5780029296875 29.91933250427246 84.49800109863281 30.035999298095703 84.39800262451172 30.13599967956543 C 84.2979965209961 30.242666244506836 84.1780014038086 30.32266616821289 84.03800201416016 30.375999450683594 C 83.9046630859375 30.435998916625977 83.7613296508789 30.465999603271484 83.60800170898438 30.465999603271484 L 79.38800048828125 30.465999603271484 C 79.23466491699219 30.465999603271484 79.0913314819336 30.435998916625977 78.95800018310547 30.375999450683594 C 78.82466888427734 30.32266616821289 78.70466613769531 30.242666244506836 78.5979995727539 30.13599967956543 C 78.49800109863281 30.035999298095703 78.42133331298828 29.91933250427246 78.36799621582031 29.785999298095703 C 78.30799865722656 29.652666091918945 78.27799987792969 29.50933265686035 78.27799987792969 29.355998992919922 L 78.27799987792969 23.79599952697754 ZM 85.57474517822266 27.945999145507812 C 85.57474517822266 27.792665481567383 85.60140991210938 27.652666091918945 85.65474700927734 27.525999069213867 C 85.7147445678711 27.399333953857422 85.79141235351562 27.285999298095703 85.8847427368164 27.185998916625977 C 85.98474884033203 27.092666625976562 86.09807586669922 27.01599884033203 86.22474670410156 26.95599937438965 C 86.35807800292969 26.902666091918945 86.49474334716797 26.875999450683594 86.6347427368164 26.875999450683594 L 89.39474487304688 26.875999450683594 L 89.39474487304688 25.756000518798828 L 85.90474700927734 25.756000518798828 L 85.90474700927734 24.685998916625977 L 89.39474487304688 24.685998916625977 C 89.54141235351562 24.685998916625977 89.68141174316406 24.715999603271484 89.81474304199219 24.775999069213867 C 89.94141387939453 24.82933235168457 90.05474853515625 24.902666091918945 90.15474700927734 24.996000289916992 C 90.24807739257812 25.09600067138672 90.3214111328125 25.209333419799805 90.37474822998047 25.33599853515625 C 90.43474578857422 25.46933364868164 90.4647445678711 25.609333038330078 90.4647445678711 25.756000518798828 L 90.4647445678711 30.465999603271484 L 89.39474487304688 30.465999603271484 L 89.39474487304688 29.486000061035156 C 89.38140869140625 29.619333267211914 89.34474182128906 29.746000289916992 89.28474426269531 29.865999221801758 C 89.22474670410156 29.986000061035156 89.14807891845703 30.092666625976562 89.05474853515625 30.185998916625977 C 88.95474243164062 30.272666931152344 88.84474182128906 30.339332580566406 88.72474670410156 30.38599967956543 C 88.59807586669922 30.439332962036133 88.46807861328125 30.465999603271484 88.33474731445312 30.465999603271484 L 86.6347427368164 30.465999603271484 C 86.49474334716797 30.465999603271484 86.35807800292969 30.439332962036133 86.22474670410156 30.38599967956543 C 86.09807586669922 30.326000213623047 85.98474884033203 30.249332427978516 85.8847427368164 30.1560001373291 C 85.79141235351562 30.055999755859375 85.7147445678711 29.94266700744629 85.65474700927734 29.81599998474121 C 85.60140991210938 29.682666778564453 85.57474517822266 29.542665481567383 85.57474517822266 29.395999908447266 L 85.57474517822266 27.945999145507812 M 86.6347427368164 29.395999908447266 L 89.39474487304688 29.395999908447266 L 89.39474487304688 27.945999145507812 L 86.6347427368164 27.945999145507812 L 86.6347427368164 29.395999908447266 ZM 91.56476593017578 25.756000518798828 L 91.56476593017578 30.465999603271484 L 90.50476837158203 30.465999603271484 L 90.50476837158203 24.685998916625977 L 91.56476593017578 24.685998916625977 L 91.56476593017578 25.70599937438965 C 91.5714340209961 25.56599998474121 91.60476684570312 25.432666778564453 91.6647720336914 25.305999755859375 C 91.72476959228516 25.185998916625977 91.80143737792969 25.07933235168457 91.89476776123047 24.986000061035156 C 91.99476623535156 24.89266586303711 92.10810089111328 24.819332122802734 92.23477172851562 24.76599884033203 C 92.36143493652344 24.712665557861328 92.49476623535156 24.685998916625977 92.634765625 24.685998916625977 L 93.77476501464844 24.685998916625977 C 93.92143249511719 24.685998916625977 94.05810546875 24.715999603271484 94.18476867675781 24.775999069213867 C 94.31143188476562 24.82933235168457 94.42476654052734 24.902666091918945 94.52476501464844 24.996000289916992 C 94.62477111816406 25.09600067138672 94.7014389038086 25.209333419799805 94.75476837158203 25.33599853515625 C 94.81476593017578 25.46933364868164 94.84477233886719 25.609333038330078 94.84477233886719 25.756000518798828 L 94.84477233886719 26.736000061035156 L 93.77476501464844 26.736000061035156 L 93.77476501464844 25.756000518798828 L 91.56476593017578 25.756000518798828 ZM 95.42521667480469 27.13599967956543 C 95.27188110351562 27.13599967956543 95.12854766845703 27.105998992919922 94.9952163696289 27.04599952697754 C 94.86188507080078 26.986000061035156 94.74188232421875 26.9060001373291 94.63521575927734 26.805999755859375 C 94.53521728515625 26.70599937438965 94.45854949951172 26.589332580566406 94.40521240234375 26.45599937438965 C 94.34521484375 26.31599998474121 94.31521606445312 26.172666549682617 94.31521606445312 26.025999069213867 L 94.31521606445312 23.79599952697754 C 94.31521606445312 23.64266586303711 94.34521484375 23.499332427978516 94.40521240234375 23.365999221801758 C 94.45854949951172 23.232666015625 94.53521728515625 23.115999221801758 94.63521575927734 23.01599884033203 C 94.74188232421875 22.916000366210938 94.86188507080078 22.83599853515625 94.9952163696289 22.775999069213867 C 95.12854766845703 22.715999603271484 95.27188110351562 22.685998916625977 95.42521667480469 22.685998916625977 L 99.20521545410156 22.685998916625977 C 99.35855102539062 22.685998916625977 99.50188446044922 22.715999603271484 99.63521575927734 22.775999069213867 C 99.76854705810547 22.83599853515625 99.88521575927734 22.916000366210938 99.98521423339844 23.01599884033203 C 100.09188079833984 23.115999221801758 100.17188262939453 23.232666015625 100.2252197265625 23.365999221801758 C 100.28521728515625 23.499332427978516 100.31521606445312 23.64266586303711 100.31521606445312 23.79599952697754 L 100.31521606445312 24.805999755859375 L 99.20521545410156 24.805999755859375 L 99.20521545410156 23.79599952697754 L 95.42521667480469 23.79599952697754 L 95.42521667480469 26.025999069213867 L 99.20521545410156 26.025999069213867 C 99.35855102539062 26.025999069213867 99.50188446044922 26.05266571044922 99.63521575927734 26.105998992919922 C 99.76854705810547 26.166000366210938 99.88521575927734 26.246000289916992 99.98521423339844 26.34600067138672 C 100.09188079833984 26.445999145507812 100.17188262939453 26.56599998474121 100.2252197265625 26.70599937438965 C 100.28521728515625 26.839332580566406 100.31521606445312 26.982666015625 100.31521606445312 27.13599967956543 L 100.31521606445312 29.355998992919922 C 100.31521606445312 29.50933265686035 100.28521728515625 29.652666091918945 100.2252197265625 29.785999298095703 C 100.17188262939453 29.91933250427246 100.09188079833984 30.035999298095703 99.98521423339844 30.13599967956543 C 99.88521575927734 30.242666244506836 99.76854705810547 30.32266616821289 99.63521575927734 30.375999450683594 C 99.50188446044922 30.435998916625977 99.35855102539062 30.465999603271484 99.20521545410156 30.465999603271484 L 95.31521606445312 30.465999603271484 C 95.16188049316406 30.465999603271484 95.01854705810547 30.435998916625977 94.88521575927734 30.375999450683594 C 94.75188446044922 30.32266616821289 94.63521575927734 30.242666244506836 94.53521728515625 30.13599967956543 C 94.42855072021484 30.035999298095703 94.34854888916016 29.91933250427246 94.29521942138672 29.785999298095703 C 94.23521423339844 29.652666091918945 94.20521545410156 29.50933265686035 94.20521545410156 29.355998992919922 L 94.20521545410156 28.355998992919922 L 95.31521606445312 28.355998992919922 L 95.31521606445312 29.355998992919922 L 99.20521545410156 29.355998992919922 L 99.20521545410156 27.13599967956543 L 95.42521667480469 27.13599967956543 ZM 105.49823760986328 30.465999603271484 L 104.42823791503906 30.465999603271484 L 104.42823791503906 25.756000518798828 L 101.44823455810547 25.756000518798828 L 101.44823455810547 30.465999603271484 L 100.38823699951172 30.465999603271484 L 100.38823699951172 22.465999603271484 L 101.44823455810547 22.465999603271484 L 101.44823455810547 25.70599937438965 C 101.45490264892578 25.56599998474121 101.48823547363281 25.432666778564453 101.5482406616211 25.305999755859375 C 101.60823822021484 25.185998916625977 101.68490600585938 25.07933235168457 101.77823638916016 24.986000061035156 C 101.87823486328125 24.89266586303711 101.99156951904297 24.819332122802734 102.11824035644531 24.76599884033203 C 102.24490356445312 24.712665557861328 102.37823486328125 24.685998916625977 102.51823425292969 24.685998916625977 L 104.42823791503906 24.685998916625977 C 104.57490539550781 24.685998916625977 104.71490478515625 24.715999603271484 104.84823608398438 24.775999069213867 C 104.9815673828125 24.82933235168457 105.09490203857422 24.902666091918945 105.18824005126953 24.996000289916992 C 105.28157043457031 25.09600067138672 105.35823822021484 25.209333419799805 105.4182357788086 25.33599853515625 C 105.47157287597656 25.46933364868164 105.49823760986328 25.609333038330078 105.49823760986328 25.756000518798828 L 105.49823760986328 30.465999603271484 ZM 110.93891143798828 29.395999908447266 C 110.93891143798828 29.542665481567383 110.9089126586914 29.682666778564453 110.84891510009766 29.81599998474121 C 110.79557800292969 29.94266700744629 110.72224426269531 30.055999755859375 110.62891387939453 30.1560001373291 C 110.52891540527344 30.249332427978516 110.41558074951172 30.326000213623047 110.28890991210938 30.38599967956543 C 110.16224670410156 30.439332962036133 110.02224731445312 30.465999603271484 109.86891174316406 30.465999603271484 L 106.99890899658203 30.465999603271484 C 106.8589096069336 30.465999603271484 106.72224426269531 30.439332962036133 106.58891296386719 30.38599967956543 C 106.46224212646484 30.326000213623047 106.34891510009766 30.249332427978516 106.24890899658203 30.1560001373291 C 106.15557861328125 30.055999755859375 106.07891082763672 29.94266700744629 106.01891326904297 29.81599998474121 C 105.965576171875 29.682666778564453 105.93891143798828 29.542665481567383 105.93891143798828 29.395999908447266 L 105.93891143798828 25.756000518798828 C 105.93891143798828 25.609333038330078 105.965576171875 25.46933364868164 106.01891326904297 25.33599853515625 C 106.07891082763672 25.209333419799805 106.15557861328125 25.09600067138672 106.24890899658203 24.996000289916992 C 106.34891510009766 24.902666091918945 106.46224212646484 24.82933235168457 106.58891296386719 24.775999069213867 C 106.72224426269531 24.715999603271484 106.8589096069336 24.685998916625977 106.99890899658203 24.685998916625977 L 109.86891174316406 24.685998916625977 C 110.02224731445312 24.685998916625977 110.16224670410156 24.715999603271484 110.28890991210938 24.775999069213867 C 110.41558074951172 24.82933235168457 110.52891540527344 24.902666091918945 110.62891387939453 24.996000289916992 C 110.72224426269531 25.09600067138672 110.79557800292969 25.209333419799805 110.84891510009766 25.33599853515625 C 110.9089126586914 25.46933364868164 110.93891143798828 25.609333038330078 110.93891143798828 25.756000518798828 L 110.93891143798828 29.395999908447266 M 106.99890899658203 25.756000518798828 L 106.99890899658203 29.395999908447266 L 109.86891174316406 29.395999908447266 L 109.86891174316406 25.756000518798828 L 106.99890899658203 25.756000518798828 ZM 116.60543060302734 29.395999908447266 C 116.60543060302734 29.542665481567383 116.57876586914062 29.682666778564453 116.52542877197266 29.81599998474121 C 116.4654312133789 29.94266700744629 116.38876342773438 30.055999755859375 116.2954330444336 30.1560001373291 C 116.20209503173828 30.249332427978516 116.08876037597656 30.326000213623047 115.95542907714844 30.38599967956543 C 115.82209777832031 30.439332962036133 115.68209838867188 30.465999603271484 115.53543090820312 30.465999603271484 L 112.55542755126953 30.465999603271484 L 112.55542755126953 32.795997619628906 L 111.49542999267578 32.795997619628906 L 111.49542999267578 24.685998916625977 L 112.55542755126953 24.685998916625977 L 112.55542755126953 25.666000366210938 C 112.56876373291016 25.525999069213867 112.60543060302734 25.399333953857422 112.6654281616211 25.285999298095703 C 112.72543334960938 25.166000366210938 112.80542755126953 25.062665939331055 112.90543365478516 24.97599983215332 C 112.99876403808594 24.882665634155273 113.10543060302734 24.812665939331055 113.22543334960938 24.76599884033203 C 113.35209655761719 24.712665557861328 113.48542785644531 24.685998916625977 113.62542724609375 24.685998916625977 L 115.53543090820312 24.685998916625977 C 115.68209838867188 24.685998916625977 115.82209777832031 24.715999603271484 115.95542907714844 24.775999069213867 C 116.08876037597656 24.82933235168457 116.20209503173828 24.902666091918945 116.2954330444336 24.996000289916992 C 116.38876342773438 25.09600067138672 116.4654312133789 25.209333419799805 116.52542877197266 25.33599853515625 C 116.57876586914062 25.46933364868164 116.60543060302734 25.609333038330078 116.60543060302734 25.756000518798828 L 116.60543060302734 29.395999908447266 M 115.53543090820312 29.395999908447266 L 115.53543090820312 25.756000518798828 L 112.55542755126953 25.756000518798828 L 112.55542755126953 29.395999908447266 L 115.53543090820312 29.395999908447266 Z" transform="matrix(2.7070980072021484, 0, 0, 2.939846992492676, -138.96817016601562, -40.324180603027344)" style="fill: rgb(51, 51, 51); white-space: pre;"/>
    <g transform="matrix(0.011849, 0, 0, -0.013027, -41.033054, 101.061348)" fill="#000000" stroke="none" style="">
      <path d="M4225 5893 c-646 -34 -1385 -192 -2470 -528 -486 -150 -705 -205 -817 -205 -57 0 -124 19 -144 41 -9 10 -20 19 -23 19 -3 0 -5 -79 -3 -175 l3 -176 -56 -83 c-103 -156 -165 -324 -165 -450 l0 -61 41 75 c59 110 196 286 294 379 219 207 473 333 760 378 135 20 400 12 537 -17 205 -43 408 -131 572 -247 161 -115 343 -324 406 -466 l21 -47 1497 1 c823 1 1488 3 1477 5 -11 2 -306 24 -655 49 -349 25 -725 52 -835 60 -110 8 -452 33 -759 55 -308 22 -560 41 -561 42 -2 2 -31 46 -66 98 -81 122 -273 315 -389 392 -109 72 -242 138 -348 173 -46 15 -80 31 -75 35 13 12 207 84 358 133 1292 419 2522 390 3401 -79 56 -30 110 -54 120 -54 44 0 304 56 301 65 -6 18 -183 130 -304 193 -425 219 -947 354 -1518 392 -138 9 -456 11 -600 3z"/>
      <path d="M6853 5214 c-124 -13 -350 -43 -998 -133 -794 -110 -1080 -135 -1440 -128 -264 5 -383 19 -557 63 -53 13 -100 24 -105 23 -19 -1 182 -73 305 -110 314 -92 590 -132 912 -132 246 -1 368 12 620 63 174 35 435 73 660 96 222 22 858 30 1102 15 547 -36 997 -131 1348 -284 l95 -41 -40 -7 c-22 -4 -111 -15 -198 -25 -86 -9 -156 -18 -154 -20 2 -2 48 -15 103 -29 309 -80 601 -228 715 -363 20 -24 29 -30 25 -17 -3 11 -26 106 -51 210 -54 220 -48 211 -221 326 -398 265 -898 441 -1406 494 -180 18 -543 18 -715 -1z"/>
      <path d="M1560 4928 c-90 -12 -259 -71 -346 -119 -190 -104 -353 -262 -498 -478 -31 -46 -56 -88 -56 -93 0 -5 77 -7 172 -6 l172 3 12 50 c21 79 91 211 150 281 133 157 274 254 469 324 50 18 99 36 110 40 27 12 -102 10 -185 -2z"/>
      <path d="M2297 4902 c228 -93 435 -288 544 -514 l23 -48 108 0 c59 0 108 4 108 8 0 5 -35 51 -78 103 -171 206 -394 364 -618 438 -125 41 -176 49 -87 13z"/>
      <path d="M1702 4805 c-378 -98 -636 -433 -631 -820 1 -64 2 -67 11 -35 62 219 107 307 221 426 299 316 782 350 1122 79 37 -30 92 -83 122 -117 66 -78 146 -237 173 -343 l20 -80 -4 115 c-7 174 -44 290 -137 430 -197 295 -556 433 -897 345z"/>
      <path d="M7135 4815 c-178 -39 -323 -120 -438 -244 -148 -161 -215 -321 -223 -536 l-5 -120 25 92 c171 640 961 846 1413 369 110 -115 170 -231 220 -421 7 -27 8 -26 11 20 2 27 -2 86 -8 131 -47 357 -316 642 -668 710 -91 17 -247 17 -327 -1z"/>
      <path d="M8061 4518 c54 -50 126 -176 169 -295 l23 -63 396 0 396 1 -40 35 c-101 89 -411 210 -764 300 -203 51 -213 52 -180 22z"/>
    </g>
  </g></g></svg>